# xmcd
#
# Track frame offsets:
#	150
#	18588
#	34521
#	49210
#	63351
#	75978
#	95728
#	111298
#	130111
#	144989
#	158947
#	171179
#	184332
#	201410
#
# Disc length: 2851 seconds
#
# Revision: 1
# Processed by: cddbd v1.5.2PL0 Copyright (c) Steve Scherf et al.
# Submitted via: EZCDAudioConverter 2.2.0.1
#
DISCID=c00b210e
DTITLE=Paulo Ricardo - O Amor Me Escolheu
DYEAR=1997
DGENRE=Latin
TTITLE0=Paulo Ricardo - E Não Vou Mais Deixar Você Tão Só
TTITLE1=Paulo Ricardo - Amor Em Vão
TTITLE2=Paulo Ricardo - Só Me Fez Bem
TTITLE3=Paulo Ricardo Part Esp Fernanda Abreu - Que Pena (Ela Já Não Gosta Mai
TTITLE3=s de Mim)
TTITLE4=Paulo Ricardo - O Amor Me Escolheu
TTITLE5=Paulo Ricardo - Tudo Por Nada (My Heart Can't Tell You No)
TTITLE6=Paulo Ricardo - Depende
TTITLE7=Paulo Ricardo - Dois
TTITLE8=Paulo Ricardo - De Novo
TTITLE9=Paulo Ricardo - Não Identificado
TTITLE10=Paulo Ricardo - Felicidade (Love of My Life)
TTITLE11=Paulo Ricardo - Você É a Canção
TTITLE12=Paulo Ricardo - Lilás
TTITLE13=Paulo Ricardo - Cuando Te Vas (Love of My Life) (Bonus track)
EXTD=
EXTT0=
EXTT1=
EXTT2=
EXTT3=
EXTT4=
EXTT5=
EXTT6=
EXTT7=
EXTT8=
EXTT9=
EXTT10=
EXTT11=
EXTT12=
EXTT13=
PLAYORDER=
